<?xml version="1.0" encoding="UTF-8"?>
<svg xmlns="http://www.w3.org/2000/svg" xmlns:xlink="http://www.w3.org/1999/xlink" width="80pt" height="37pt" viewBox="0 0 80 37" version="1.1">
<g id="surface1">
<path style="fill-rule:nonzero;fill:rgb(0%,100%,0%);fill-opacity:1;stroke-width:0.3985;stroke-linecap:butt;stroke-linejoin:miter;stroke:rgb(0%,100%,0%);stroke-opacity:1;stroke-miterlimit:10;" d="M 17.008594 -0.000301135 C 17.008594 9.39376 9.395313 17.006661 0.00078125 17.006661 C -9.39375 17.006661 -17.007031 9.39376 -17.007031 -0.000301135 C -17.007031 -9.394363 -9.39375 -17.007263 0.00078125 -17.007263 C 9.395313 -17.007263 17.008594 -9.394363 17.008594 -0.000301135 Z M 17.008594 -0.000301135 " transform="matrix(1,0,0,-1.00005,18.8,18.226261)"/>
<path style="fill:none;stroke-width:0.3985;stroke-linecap:butt;stroke-linejoin:miter;stroke:rgb(0%,0%,0%);stroke-opacity:1;stroke-miterlimit:10;" d="M 17.008594 -0.000301135 C 17.008594 9.39376 9.395313 17.006661 0.00078125 17.006661 C -9.39375 17.006661 -17.007031 9.39376 -17.007031 -0.000301135 C -17.007031 -9.394363 -9.39375 -17.007263 0.00078125 -17.007263 C 9.395313 -17.007263 17.008594 -9.394363 17.008594 -0.000301135 Z M 17.008594 -0.000301135 " transform="matrix(1,0,0,-1.00005,18.8,18.226261)"/>
<path style="fill:none;stroke-width:0.3985;stroke-linecap:butt;stroke-linejoin:miter;stroke:rgb(0%,0%,0%);stroke-opacity:1;stroke-miterlimit:10;" d="M 0.00078125 -17.007263 L 0.00078125 17.006661 " transform="matrix(1,0,0,-1.00005,18.8,18.226261)"/>
<path style="fill:none;stroke-width:0.3985;stroke-linecap:butt;stroke-linejoin:miter;stroke:rgb(0%,0%,0%);stroke-opacity:1;stroke-miterlimit:10;" d="M 14.73125 8.50318 L -14.729687 -8.503782 " transform="matrix(1,0,0,-1.00005,18.8,18.226261)"/>
<path style="fill:none;stroke-width:0.3985;stroke-linecap:butt;stroke-linejoin:miter;stroke:rgb(0%,0%,0%);stroke-opacity:1;stroke-miterlimit:10;" d="M -14.729687 8.50318 L 14.73125 -8.503782 " transform="matrix(1,0,0,-1.00005,18.8,18.226261)"/>
<path style="fill-rule:nonzero;fill:rgb(0%,100%,0%);fill-opacity:1;stroke-width:0.3985;stroke-linecap:butt;stroke-linejoin:miter;stroke:rgb(0%,100%,0%);stroke-opacity:1;stroke-miterlimit:10;" d="M 57.254688 -8.503782 C 61.95 -0.36747 59.160938 10.034353 51.028125 14.729431 C 42.891406 19.424509 32.489063 16.639492 27.79375 8.50318 C 24.754688 3.241724 24.754688 -3.242327 27.79375 -8.503782 L 42.524219 -0.000301135 Z M 57.254688 -8.503782 " transform="matrix(1,0,0,-1.00005,18.8,18.226261)"/>
<path style="fill:none;stroke-width:0.3985;stroke-linecap:butt;stroke-linejoin:miter;stroke:rgb(0%,0%,0%);stroke-opacity:1;stroke-miterlimit:10;" d="M 59.532031 -0.000301135 C 59.532031 9.39376 51.914844 17.006661 42.524219 17.006661 C 33.129688 17.006661 25.516406 9.39376 25.516406 -0.000301135 C 25.516406 -9.394363 33.129688 -17.007263 42.524219 -17.007263 C 51.914844 -17.007263 59.532031 -9.394363 59.532031 -0.000301135 Z M 59.532031 -0.000301135 " transform="matrix(1,0,0,-1.00005,18.8,18.226261)"/>
<path style="fill:none;stroke-width:0.3985;stroke-linecap:butt;stroke-linejoin:miter;stroke:rgb(0%,0%,0%);stroke-opacity:1;stroke-miterlimit:10;" d="M 42.524219 -17.007263 L 42.524219 17.006661 " transform="matrix(1,0,0,-1.00005,18.8,18.226261)"/>
<path style="fill:none;stroke-width:0.3985;stroke-linecap:butt;stroke-linejoin:miter;stroke:rgb(0%,0%,0%);stroke-opacity:1;stroke-miterlimit:10;" d="M 57.254688 8.50318 L 27.79375 -8.503782 " transform="matrix(1,0,0,-1.00005,18.8,18.226261)"/>
<path style="fill:none;stroke-width:0.3985;stroke-linecap:butt;stroke-linejoin:miter;stroke:rgb(0%,0%,0%);stroke-opacity:1;stroke-miterlimit:10;" d="M 27.79375 8.50318 L 57.254688 -8.503782 " transform="matrix(1,0,0,-1.00005,18.8,18.226261)"/>
</g>
</svg>
