<?xml version="1.0" encoding="UTF-8"?>
<svg xmlns="http://www.w3.org/2000/svg" xmlns:xlink="http://www.w3.org/1999/xlink" width="165pt" height="37pt" viewBox="0 0 165 37" version="1.1">
<g id="surface1">
<path style="fill-rule:nonzero;fill:rgb(0%,100%,0%);fill-opacity:1;stroke-width:0.3985;stroke-linecap:butt;stroke-linejoin:miter;stroke:rgb(0%,100%,0%);stroke-opacity:1;stroke-miterlimit:10;" d="M 17.009818 -0.000537579 C 17.009818 9.393806 9.39324 17.006935 -0.000539527 17.006935 C -9.394319 17.006935 -17.006992 9.393806 -17.006992 -0.000537579 C -17.006992 -9.394881 -9.394319 -17.00801 -0.000539527 -17.00801 C 9.39324 -17.00801 17.009818 -9.394881 17.009818 -0.000537579 Z M 17.009818 -0.000537579 " transform="matrix(1.00008,0,0,-1.00002,19.106008,18.808056)"/>
<path style="fill:none;stroke-width:0.3985;stroke-linecap:butt;stroke-linejoin:miter;stroke:rgb(0%,0%,0%);stroke-opacity:1;stroke-miterlimit:10;" d="M 17.009818 -0.000537579 C 17.009818 9.393806 9.39324 17.006935 -0.000539527 17.006935 C -9.394319 17.006935 -17.006992 9.393806 -17.006992 -0.000537579 C -17.006992 -9.394881 -9.394319 -17.00801 -0.000539527 -17.00801 C 9.39324 -17.00801 17.009818 -9.394881 17.009818 -0.000537579 Z M 17.009818 -0.000537579 " transform="matrix(1.00008,0,0,-1.00002,19.106008,18.808056)"/>
<path style="fill:none;stroke-width:0.3985;stroke-linecap:butt;stroke-linejoin:miter;stroke:rgb(0%,0%,0%);stroke-opacity:1;stroke-miterlimit:10;" d="M -0.000539527 -0.000537579 L -0.000539527 17.006935 " transform="matrix(1.00008,0,0,-1.00002,19.106008,18.808056)"/>
<path style="fill:none;stroke-width:0.3985;stroke-linecap:butt;stroke-linejoin:miter;stroke:rgb(0%,0%,0%);stroke-opacity:1;stroke-miterlimit:10;" d="M -0.000539527 -0.000537579 L -16.175027 5.25717 " transform="matrix(1.00008,0,0,-1.00002,19.106008,18.808056)"/>
<path style="fill:none;stroke-width:0.3985;stroke-linecap:butt;stroke-linejoin:miter;stroke:rgb(0%,0%,0%);stroke-opacity:1;stroke-miterlimit:10;" d="M -0.000539527 -0.000537579 L -9.995834 -13.761981 " transform="matrix(1.00008,0,0,-1.00002,19.106008,18.808056)"/>
<path style="fill:none;stroke-width:0.3985;stroke-linecap:butt;stroke-linejoin:miter;stroke:rgb(0%,0%,0%);stroke-opacity:1;stroke-miterlimit:10;" d="M -0.000539527 -0.000537579 L 9.998661 -13.761981 " transform="matrix(1.00008,0,0,-1.00002,19.106008,18.808056)"/>
<path style="fill:none;stroke-width:0.3985;stroke-linecap:butt;stroke-linejoin:miter;stroke:rgb(0%,0%,0%);stroke-opacity:1;stroke-miterlimit:10;" d="M -0.000539527 -0.000537579 L 16.177854 5.25717 " transform="matrix(1.00008,0,0,-1.00002,19.106008,18.808056)"/>
<path style="fill-rule:nonzero;fill:rgb(0%,100%,0%);fill-opacity:1;stroke-width:0.3985;stroke-linecap:butt;stroke-linejoin:miter;stroke:rgb(0%,100%,0%);stroke-opacity:1;stroke-miterlimit:10;" d="M 59.529854 -0.000537579 C 59.529854 9.393806 51.917182 17.006935 42.523402 17.006935 C 33.129623 17.006935 25.513044 9.393806 25.513044 -0.000537579 C 25.513044 -9.394881 33.129623 -17.00801 42.523402 -17.00801 C 51.917182 -17.00801 59.529854 -9.394881 59.529854 -0.000537579 Z M 59.529854 -0.000537579 " transform="matrix(1.00008,0,0,-1.00002,19.106008,18.808056)"/>
<path style="fill:none;stroke-width:0.3985;stroke-linecap:butt;stroke-linejoin:miter;stroke:rgb(0%,0%,0%);stroke-opacity:1;stroke-miterlimit:10;" d="M 59.529854 -0.000537579 C 59.529854 9.393806 51.917182 17.006935 42.523402 17.006935 C 33.129623 17.006935 25.513044 9.393806 25.513044 -0.000537579 C 25.513044 -9.394881 33.129623 -17.00801 42.523402 -17.00801 C 51.917182 -17.00801 59.529854 -9.394881 59.529854 -0.000537579 Z M 59.529854 -0.000537579 " transform="matrix(1.00008,0,0,-1.00002,19.106008,18.808056)"/>
<path style="fill:none;stroke-width:0.3985;stroke-linecap:butt;stroke-linejoin:miter;stroke:rgb(0%,0%,0%);stroke-opacity:1;stroke-miterlimit:10;" d="M 42.523402 -0.000537579 L 42.523402 17.006935 " transform="matrix(1.00008,0,0,-1.00002,19.106008,18.808056)"/>
<path style="fill:none;stroke-width:0.3985;stroke-linecap:butt;stroke-linejoin:miter;stroke:rgb(0%,0%,0%);stroke-opacity:1;stroke-miterlimit:10;" d="M 42.523402 -0.000537579 L 26.348915 5.25717 " transform="matrix(1.00008,0,0,-1.00002,19.106008,18.808056)"/>
<path style="fill:none;stroke-width:0.3985;stroke-linecap:butt;stroke-linejoin:miter;stroke:rgb(0%,0%,0%);stroke-opacity:1;stroke-miterlimit:10;" d="M 42.523402 -0.000537579 L 32.524202 -13.761981 " transform="matrix(1.00008,0,0,-1.00002,19.106008,18.808056)"/>
<path style="fill:none;stroke-width:0.3985;stroke-linecap:butt;stroke-linejoin:miter;stroke:rgb(0%,0%,0%);stroke-opacity:1;stroke-miterlimit:10;" d="M 42.523402 -0.000537579 L 52.518696 -13.761981 " transform="matrix(1.00008,0,0,-1.00002,19.106008,18.808056)"/>
<path style="fill:none;stroke-width:0.3985;stroke-linecap:butt;stroke-linejoin:miter;stroke:rgb(0%,0%,0%);stroke-opacity:1;stroke-miterlimit:10;" d="M 42.523402 -0.000537579 L 58.69789 5.25717 " transform="matrix(1.00008,0,0,-1.00002,19.106008,18.808056)"/>
<path style="fill-rule:nonzero;fill:rgb(0%,100%,0%);fill-opacity:1;stroke-width:0.3985;stroke-linecap:butt;stroke-linejoin:miter;stroke:rgb(0%,100%,0%);stroke-opacity:1;stroke-miterlimit:10;" d="M 102.053796 -0.000537579 C 102.053796 9.393806 94.441124 17.006935 85.047344 17.006935 C 75.653564 17.006935 68.036986 9.393806 68.036986 -0.000537579 C 68.036986 -9.394881 75.653564 -17.00801 85.047344 -17.00801 C 94.441124 -17.00801 102.053796 -9.394881 102.053796 -0.000537579 Z M 102.053796 -0.000537579 " transform="matrix(1.00008,0,0,-1.00002,19.106008,18.808056)"/>
<path style="fill:none;stroke-width:0.3985;stroke-linecap:butt;stroke-linejoin:miter;stroke:rgb(0%,0%,0%);stroke-opacity:1;stroke-miterlimit:10;" d="M 102.053796 -0.000537579 C 102.053796 9.393806 94.441124 17.006935 85.047344 17.006935 C 75.653564 17.006935 68.036986 9.393806 68.036986 -0.000537579 C 68.036986 -9.394881 75.653564 -17.00801 85.047344 -17.00801 C 94.441124 -17.00801 102.053796 -9.394881 102.053796 -0.000537579 Z M 102.053796 -0.000537579 " transform="matrix(1.00008,0,0,-1.00002,19.106008,18.808056)"/>
<path style="fill:none;stroke-width:0.3985;stroke-linecap:butt;stroke-linejoin:miter;stroke:rgb(0%,0%,0%);stroke-opacity:1;stroke-miterlimit:10;" d="M 85.047344 -0.000537579 L 85.047344 17.006935 " transform="matrix(1.00008,0,0,-1.00002,19.106008,18.808056)"/>
<path style="fill:none;stroke-width:0.3985;stroke-linecap:butt;stroke-linejoin:miter;stroke:rgb(0%,0%,0%);stroke-opacity:1;stroke-miterlimit:10;" d="M 85.047344 -0.000537579 L 68.868951 5.25717 " transform="matrix(1.00008,0,0,-1.00002,19.106008,18.808056)"/>
<path style="fill:none;stroke-width:0.3985;stroke-linecap:butt;stroke-linejoin:miter;stroke:rgb(0%,0%,0%);stroke-opacity:1;stroke-miterlimit:10;" d="M 85.047344 -0.000537579 L 75.048144 -13.761981 " transform="matrix(1.00008,0,0,-1.00002,19.106008,18.808056)"/>
<path style="fill:none;stroke-width:0.3985;stroke-linecap:butt;stroke-linejoin:miter;stroke:rgb(0%,0%,0%);stroke-opacity:1;stroke-miterlimit:10;" d="M 85.047344 -0.000537579 L 95.042638 -13.761981 " transform="matrix(1.00008,0,0,-1.00002,19.106008,18.808056)"/>
<path style="fill:none;stroke-width:0.3985;stroke-linecap:butt;stroke-linejoin:miter;stroke:rgb(0%,0%,0%);stroke-opacity:1;stroke-miterlimit:10;" d="M 85.047344 -0.000537579 L 101.221831 5.25717 " transform="matrix(1.00008,0,0,-1.00002,19.106008,18.808056)"/>
<path style="fill-rule:nonzero;fill:rgb(0%,100%,0%);fill-opacity:1;stroke-width:0.3985;stroke-linecap:butt;stroke-linejoin:miter;stroke:rgb(0%,100%,0%);stroke-opacity:1;stroke-miterlimit:10;" d="M 144.577738 -0.000537579 C 144.577738 9.393806 136.96116 17.006935 127.571286 17.006935 C 118.177506 17.006935 110.560928 9.393806 110.560928 -0.000537579 C 110.560928 -9.394881 118.177506 -17.00801 127.571286 -17.00801 C 136.96116 -17.00801 144.577738 -9.394881 144.577738 -0.000537579 Z M 144.577738 -0.000537579 " transform="matrix(1.00008,0,0,-1.00002,19.106008,18.808056)"/>
<path style="fill:none;stroke-width:0.3985;stroke-linecap:butt;stroke-linejoin:miter;stroke:rgb(0%,0%,0%);stroke-opacity:1;stroke-miterlimit:10;" d="M 144.577738 -0.000537579 C 144.577738 9.393806 136.96116 17.006935 127.571286 17.006935 C 118.177506 17.006935 110.560928 9.393806 110.560928 -0.000537579 C 110.560928 -9.394881 118.177506 -17.00801 127.571286 -17.00801 C 136.96116 -17.00801 144.577738 -9.394881 144.577738 -0.000537579 Z M 144.577738 -0.000537579 " transform="matrix(1.00008,0,0,-1.00002,19.106008,18.808056)"/>
<path style="fill:none;stroke-width:0.3985;stroke-linecap:butt;stroke-linejoin:miter;stroke:rgb(0%,0%,0%);stroke-opacity:1;stroke-miterlimit:10;" d="M 127.571286 -0.000537579 L 127.571286 17.006935 " transform="matrix(1.00008,0,0,-1.00002,19.106008,18.808056)"/>
<path style="fill:none;stroke-width:0.3985;stroke-linecap:butt;stroke-linejoin:miter;stroke:rgb(0%,0%,0%);stroke-opacity:1;stroke-miterlimit:10;" d="M 127.571286 -0.000537579 L 111.392893 5.25717 " transform="matrix(1.00008,0,0,-1.00002,19.106008,18.808056)"/>
<path style="fill:none;stroke-width:0.3985;stroke-linecap:butt;stroke-linejoin:miter;stroke:rgb(0%,0%,0%);stroke-opacity:1;stroke-miterlimit:10;" d="M 127.571286 -0.000537579 L 117.572086 -13.761981 " transform="matrix(1.00008,0,0,-1.00002,19.106008,18.808056)"/>
<path style="fill:none;stroke-width:0.3985;stroke-linecap:butt;stroke-linejoin:miter;stroke:rgb(0%,0%,0%);stroke-opacity:1;stroke-miterlimit:10;" d="M 127.571286 -0.000537579 L 137.56658 -13.761981 " transform="matrix(1.00008,0,0,-1.00002,19.106008,18.808056)"/>
<path style="fill:none;stroke-width:0.3985;stroke-linecap:butt;stroke-linejoin:miter;stroke:rgb(0%,0%,0%);stroke-opacity:1;stroke-miterlimit:10;" d="M 127.571286 -0.000537579 L 143.745773 5.25717 " transform="matrix(1.00008,0,0,-1.00002,19.106008,18.808056)"/>
</g>
</svg>
