<?xml version="1.0" encoding="UTF-8"?>
<svg xmlns="http://www.w3.org/2000/svg" xmlns:xlink="http://www.w3.org/1999/xlink" width="165pt" height="38pt" viewBox="0 0 165 38" version="1.1">
<g id="surface1">
<path style="fill-rule:nonzero;fill:rgb(0%,100%,0%);fill-opacity:1;stroke-width:0.3985;stroke-linecap:butt;stroke-linejoin:miter;stroke:rgb(0%,100%,0%);stroke-opacity:1;stroke-miterlimit:10;" d="M 17.00699 -0.000537579 C 17.00699 9.393806 9.393937 17.006935 -0.000312741 17.006935 C -9.394562 17.006935 -17.007615 9.393806 -17.007615 -0.000537579 C -17.007615 -9.394881 -9.394562 -17.00801 -0.000312741 -17.00801 C 9.393937 -17.00801 17.00699 -9.394881 17.00699 -0.000537579 Z M 17.00699 -0.000537579 " transform="matrix(1.00003,0,0,-1.00002,18.801094,18.808056)"/>
<path style="fill:none;stroke-width:0.3985;stroke-linecap:butt;stroke-linejoin:miter;stroke:rgb(0%,0%,0%);stroke-opacity:1;stroke-miterlimit:10;" d="M 17.00699 -0.000537579 C 17.00699 9.393806 9.393937 17.006935 -0.000312741 17.006935 C -9.394562 17.006935 -17.007615 9.393806 -17.007615 -0.000537579 C -17.007615 -9.394881 -9.394562 -17.00801 -0.000312741 -17.00801 C 9.393937 -17.00801 17.00699 -9.394881 17.00699 -0.000537579 Z M 17.00699 -0.000537579 " transform="matrix(1.00003,0,0,-1.00002,18.801094,18.808056)"/>
<path style="fill:none;stroke-width:0.3985;stroke-linecap:butt;stroke-linejoin:miter;stroke:rgb(0%,0%,0%);stroke-opacity:1;stroke-miterlimit:10;" d="M -0.000312741 -0.000537579 L -0.000312741 17.006935 " transform="matrix(1.00003,0,0,-1.00002,18.801094,18.808056)"/>
<path style="fill:none;stroke-width:0.3985;stroke-linecap:butt;stroke-linejoin:miter;stroke:rgb(0%,0%,0%);stroke-opacity:1;stroke-miterlimit:10;" d="M -0.000312741 -0.000537579 L -14.73034 -8.504274 " transform="matrix(1.00003,0,0,-1.00002,18.801094,18.808056)"/>
<path style="fill:none;stroke-width:0.3985;stroke-linecap:butt;stroke-linejoin:miter;stroke:rgb(0%,0%,0%);stroke-opacity:1;stroke-miterlimit:10;" d="M -0.000312741 -0.000537579 L 14.729714 -8.504274 " transform="matrix(1.00003,0,0,-1.00002,18.801094,18.808056)"/>
<path style="fill-rule:nonzero;fill:rgb(0%,100%,0%);fill-opacity:1;stroke-width:0.3985;stroke-linecap:butt;stroke-linejoin:miter;stroke:rgb(0%,100%,0%);stroke-opacity:1;stroke-miterlimit:10;" d="M 59.533058 -0.000537579 C 59.533058 9.393806 51.916099 17.006935 42.521849 17.006935 C 33.131506 17.006935 25.514547 9.393806 25.514547 -0.000537579 C 25.514547 -9.394881 33.131506 -17.00801 42.521849 -17.00801 C 51.916099 -17.00801 59.533058 -9.394881 59.533058 -0.000537579 Z M 59.533058 -0.000537579 " transform="matrix(1.00003,0,0,-1.00002,18.801094,18.808056)"/>
<path style="fill:none;stroke-width:0.3985;stroke-linecap:butt;stroke-linejoin:miter;stroke:rgb(0%,0%,0%);stroke-opacity:1;stroke-miterlimit:10;" d="M 59.533058 -0.000537579 C 59.533058 9.393806 51.916099 17.006935 42.521849 17.006935 C 33.131506 17.006935 25.514547 9.393806 25.514547 -0.000537579 C 25.514547 -9.394881 33.131506 -17.00801 42.521849 -17.00801 C 51.916099 -17.00801 59.533058 -9.394881 59.533058 -0.000537579 Z M 59.533058 -0.000537579 " transform="matrix(1.00003,0,0,-1.00002,18.801094,18.808056)"/>
<path style="fill:none;stroke-width:0.3985;stroke-linecap:butt;stroke-linejoin:miter;stroke:rgb(0%,0%,0%);stroke-opacity:1;stroke-miterlimit:10;" d="M 42.521849 -0.000537579 L 42.521849 17.006935 " transform="matrix(1.00003,0,0,-1.00002,18.801094,18.808056)"/>
<path style="fill:none;stroke-width:0.3985;stroke-linecap:butt;stroke-linejoin:miter;stroke:rgb(0%,0%,0%);stroke-opacity:1;stroke-miterlimit:10;" d="M 42.521849 -0.000537579 L 27.791822 -8.504274 " transform="matrix(1.00003,0,0,-1.00002,18.801094,18.808056)"/>
<path style="fill:none;stroke-width:0.3985;stroke-linecap:butt;stroke-linejoin:miter;stroke:rgb(0%,0%,0%);stroke-opacity:1;stroke-miterlimit:10;" d="M 42.521849 -0.000537579 L 57.251876 -8.504274 " transform="matrix(1.00003,0,0,-1.00002,18.801094,18.808056)"/>
<path style="fill-rule:nonzero;fill:rgb(0%,100%,0%);fill-opacity:1;stroke-width:0.3985;stroke-linecap:butt;stroke-linejoin:miter;stroke:rgb(0%,100%,0%);stroke-opacity:1;stroke-miterlimit:10;" d="M 102.055219 -0.000537579 C 102.055219 9.393806 94.43826 17.006935 85.047917 17.006935 C 75.653668 17.006935 68.036709 9.393806 68.036709 -0.000537579 C 68.036709 -9.394881 75.653668 -17.00801 85.047917 -17.00801 C 94.43826 -17.00801 102.055219 -9.394881 102.055219 -0.000537579 Z M 102.055219 -0.000537579 " transform="matrix(1.00003,0,0,-1.00002,18.801094,18.808056)"/>
<path style="fill:none;stroke-width:0.3985;stroke-linecap:butt;stroke-linejoin:miter;stroke:rgb(0%,0%,0%);stroke-opacity:1;stroke-miterlimit:10;" d="M 102.055219 -0.000537579 C 102.055219 9.393806 94.43826 17.006935 85.047917 17.006935 C 75.653668 17.006935 68.036709 9.393806 68.036709 -0.000537579 C 68.036709 -9.394881 75.653668 -17.00801 85.047917 -17.00801 C 94.43826 -17.00801 102.055219 -9.394881 102.055219 -0.000537579 Z M 102.055219 -0.000537579 " transform="matrix(1.00003,0,0,-1.00002,18.801094,18.808056)"/>
<path style="fill:none;stroke-width:0.3985;stroke-linecap:butt;stroke-linejoin:miter;stroke:rgb(0%,0%,0%);stroke-opacity:1;stroke-miterlimit:10;" d="M 85.047917 -0.000537579 L 85.047917 17.006935 " transform="matrix(1.00003,0,0,-1.00002,18.801094,18.808056)"/>
<path style="fill:none;stroke-width:0.3985;stroke-linecap:butt;stroke-linejoin:miter;stroke:rgb(0%,0%,0%);stroke-opacity:1;stroke-miterlimit:10;" d="M 85.047917 -0.000537579 L 70.31789 -8.504274 " transform="matrix(1.00003,0,0,-1.00002,18.801094,18.808056)"/>
<path style="fill:none;stroke-width:0.3985;stroke-linecap:butt;stroke-linejoin:miter;stroke:rgb(0%,0%,0%);stroke-opacity:1;stroke-miterlimit:10;" d="M 85.047917 -0.000537579 L 99.774038 -8.504274 " transform="matrix(1.00003,0,0,-1.00002,18.801094,18.808056)"/>
<path style="fill-rule:nonzero;fill:rgb(0%,100%,0%);fill-opacity:1;stroke-width:0.3985;stroke-linecap:butt;stroke-linejoin:miter;stroke:rgb(0%,100%,0%);stroke-opacity:1;stroke-miterlimit:10;" d="M 144.577381 -0.000537579 C 144.577381 9.393806 136.964328 17.006935 127.570079 17.006935 C 118.175829 17.006935 110.562777 9.393806 110.562777 -0.000537579 C 110.562777 -9.394881 118.175829 -17.00801 127.570079 -17.00801 C 136.964328 -17.00801 144.577381 -9.394881 144.577381 -0.000537579 Z M 144.577381 -0.000537579 " transform="matrix(1.00003,0,0,-1.00002,18.801094,18.808056)"/>
<path style="fill:none;stroke-width:0.3985;stroke-linecap:butt;stroke-linejoin:miter;stroke:rgb(0%,0%,0%);stroke-opacity:1;stroke-miterlimit:10;" d="M 144.577381 -0.000537579 C 144.577381 9.393806 136.964328 17.006935 127.570079 17.006935 C 118.175829 17.006935 110.562777 9.393806 110.562777 -0.000537579 C 110.562777 -9.394881 118.175829 -17.00801 127.570079 -17.00801 C 136.964328 -17.00801 144.577381 -9.394881 144.577381 -0.000537579 Z M 144.577381 -0.000537579 " transform="matrix(1.00003,0,0,-1.00002,18.801094,18.808056)"/>
<path style="fill:none;stroke-width:0.3985;stroke-linecap:butt;stroke-linejoin:miter;stroke:rgb(0%,0%,0%);stroke-opacity:1;stroke-miterlimit:10;" d="M 127.570079 -0.000537579 L 127.570079 17.006935 " transform="matrix(1.00003,0,0,-1.00002,18.801094,18.808056)"/>
<path style="fill:none;stroke-width:0.3985;stroke-linecap:butt;stroke-linejoin:miter;stroke:rgb(0%,0%,0%);stroke-opacity:1;stroke-miterlimit:10;" d="M 127.570079 -0.000537579 L 112.840052 -8.504274 " transform="matrix(1.00003,0,0,-1.00002,18.801094,18.808056)"/>
<path style="fill:none;stroke-width:0.3985;stroke-linecap:butt;stroke-linejoin:miter;stroke:rgb(0%,0%,0%);stroke-opacity:1;stroke-miterlimit:10;" d="M 127.570079 -0.000537579 L 142.300106 -8.504274 " transform="matrix(1.00003,0,0,-1.00002,18.801094,18.808056)"/>
</g>
</svg>
