<?xml version="1.0" encoding="UTF-8"?>
<svg xmlns="http://www.w3.org/2000/svg" xmlns:xlink="http://www.w3.org/1999/xlink" width="185pt" height="59pt" viewBox="0 0 185 59" version="1.1">
<g id="surface1">
<path style="fill-rule:nonzero;fill:rgb(0%,0%,100%);fill-opacity:1;stroke-width:0.3985;stroke-linecap:butt;stroke-linejoin:miter;stroke:rgb(0%,0%,100%);stroke-opacity:1;stroke-miterlimit:10;" d="M 0.00112766 0.00187448 L 0.00112766 56.695486 L 45.355689 56.695486 L 45.355689 0.00187448 Z M 0.00112766 0.00187448 " transform="matrix(1.00002,0,0,-1.00003,1.99106,57.693281)"/>
<path style="fill:none;stroke-width:0.79701;stroke-linecap:butt;stroke-linejoin:miter;stroke:rgb(0%,0%,0%);stroke-opacity:1;stroke-miterlimit:10;" d="M 0.00112766 0.00187448 L 181.419374 0.00187448 M 0.00112766 28.34868 L 181.419374 28.34868 M 0.00112766 56.683768 L 181.419374 56.683768 M 0.00112766 0.00187448 L 0.00112766 56.695486 M 22.676455 0.00187448 L 22.676455 56.695486 M 45.355689 0.00187448 L 45.355689 56.695486 M 68.031017 0.00187448 L 68.031017 56.695486 M 90.710251 0.00187448 L 90.710251 56.695486 M 113.389485 0.00187448 L 113.389485 56.695486 M 136.064813 0.00187448 L 136.064813 56.695486 M 158.744047 0.00187448 L 158.744047 56.695486 M 181.411562 0.00187448 L 181.411562 56.695486 " transform="matrix(1.00002,0,0,-1.00003,1.99106,57.693281)"/>
</g>
</svg>
