<?xml version="1.0" encoding="UTF-8"?>
<svg xmlns="http://www.w3.org/2000/svg" xmlns:xlink="http://www.w3.org/1999/xlink" width="72pt" height="94pt" viewBox="0 0 72 94" version="1.1">
<g id="surface1">
<path style="fill-rule:nonzero;fill:rgb(100%,75%,75%);fill-opacity:1;stroke-width:0.3985;stroke-linecap:butt;stroke-linejoin:miter;stroke:rgb(100%,75%,75%);stroke-opacity:1;stroke-miterlimit:10;" d="M 0.000537923 0.000898055 L 0.000537923 90.711206 L 45.353739 90.711206 L 45.353739 0.000898055 Z M 0.000537923 0.000898055 " transform="matrix(1.00005,0,0,-1.00005,1.99165,91.711836)"/>
<path style="fill-rule:nonzero;fill:rgb(0%,0%,100%);fill-opacity:0.4;stroke-width:0.3985;stroke-linecap:butt;stroke-linejoin:miter;stroke:rgb(0%,0%,100%);stroke-opacity:0.4;stroke-miterlimit:10;" d="M 0.000537923 68.032653 L 0.000537923 90.711206 L 68.032293 90.711206 L 68.032293 68.032653 Z M 0.000537923 68.032653 " transform="matrix(1.00005,0,0,-1.00005,1.99165,91.711836)"/>
<path style="fill:none;stroke-width:0.79701;stroke-linecap:butt;stroke-linejoin:miter;stroke:rgb(0%,0%,0%);stroke-opacity:1;stroke-miterlimit:10;" d="M 0.000537923 0.000898055 L 68.032293 0.000898055 M 0.000537923 22.679452 L 68.032293 22.679452 M 0.000537923 45.354099 L 68.032293 45.354099 M 0.000537923 68.032653 L 68.032293 68.032653 M 0.000537923 90.703394 L 68.032293 90.703394 M 0.000537923 0.000898055 L 0.000537923 90.711206 M 22.679091 0.000898055 L 22.679091 90.711206 M 45.353739 0.000898055 L 45.353739 90.711206 M 68.02448 0.000898055 L 68.02448 90.711206 " transform="matrix(1.00005,0,0,-1.00005,1.99165,91.711836)"/>
</g>
</svg>
