<?xml version="1.0" encoding="UTF-8"?>
<svg xmlns="http://www.w3.org/2000/svg" xmlns:xlink="http://www.w3.org/1999/xlink" width="117pt" height="116pt" viewBox="0 0 117 116" version="1.1">
<g id="surface1">
<path style="fill-rule:nonzero;fill:rgb(0%,0%,100%);fill-opacity:1;stroke-width:0.3985;stroke-linecap:butt;stroke-linejoin:miter;stroke:rgb(0%,0%,100%);stroke-opacity:1;stroke-miterlimit:10;" d="M 0.000537923 85.04025 L 0.000537923 113.387906 L 113.3894 113.387906 L 113.3894 85.04025 Z M 0.000537923 85.04025 " transform="matrix(1.00005,0,0,-1,1.99165,114.384)"/>
<path style="fill:none;stroke-width:0.79701;stroke-linecap:butt;stroke-linejoin:miter;stroke:rgb(0%,0%,0%);stroke-opacity:1;stroke-miterlimit:10;" d="M 0.000537923 0.0011875 L 113.3894 0.0011875 M 0.000537923 28.344938 L 113.3894 28.344938 M 0.000537923 56.692594 L 113.3894 56.692594 M 0.000537923 85.04025 L 113.3894 85.04025 M 0.000537923 113.376188 L 113.3894 113.376188 M 0.000537923 0.0011875 L 0.000537923 113.387906 M 22.679091 0.0011875 L 22.679091 113.387906 M 45.353739 0.0011875 L 45.353739 113.387906 M 68.032293 0.0011875 L 68.032293 113.387906 M 90.710846 0.0011875 L 90.710846 113.387906 M 113.381588 0.0011875 L 113.381588 113.387906 " transform="matrix(1.00005,0,0,-1,1.99165,114.384)"/>
</g>
</svg>
