<?xml version="1.0" encoding="UTF-8"?>
<svg xmlns="http://www.w3.org/2000/svg" xmlns:xlink="http://www.w3.org/1999/xlink" width="185pt" height="173pt" viewBox="0 0 185 173" version="1.1">
<g id="surface1">
<path style="fill-rule:nonzero;fill:rgb(0%,0%,100%);fill-opacity:1;stroke-width:0.3985;stroke-linecap:butt;stroke-linejoin:miter;stroke:rgb(0%,0%,100%);stroke-opacity:1;stroke-miterlimit:10;" d="M 0.00112766 -0.001125 L 0.00112766 170.080906 L 45.355689 170.080906 L 45.355689 -0.001125 Z M 0.00112766 -0.001125 " transform="matrix(1.00002,0,0,-1,1.99106,171.077)"/>
<path style="fill:none;stroke-width:0.79701;stroke-linecap:butt;stroke-linejoin:miter;stroke:rgb(0%,0%,0%);stroke-opacity:1;stroke-miterlimit:10;" d="M 0.00112766 -0.001125 L 181.419374 -0.001125 M 0.00112766 28.346531 L 181.419374 28.346531 M 0.00112766 56.694187 L 181.419374 56.694187 M 0.00112766 85.041844 L 181.419374 85.041844 M 0.00112766 113.385594 L 181.419374 113.385594 M 0.00112766 141.73325 L 181.419374 141.73325 M 0.00112766 170.069188 L 181.419374 170.069188 M 0.00112766 -0.001125 L 0.00112766 170.080906 M 22.676455 -0.001125 L 22.676455 170.080906 M 45.355689 -0.001125 L 45.355689 170.080906 M 68.031017 -0.001125 L 68.031017 170.080906 M 90.710251 -0.001125 L 90.710251 170.080906 M 113.389485 -0.001125 L 113.389485 170.080906 M 136.064813 -0.001125 L 136.064813 170.080906 M 158.744047 -0.001125 L 158.744047 170.080906 M 181.411562 -0.001125 L 181.411562 170.080906 " transform="matrix(1.00002,0,0,-1,1.99106,171.077)"/>
</g>
</svg>
