<?xml version="1.0" encoding="UTF-8"?>
<svg xmlns="http://www.w3.org/2000/svg" xmlns:xlink="http://www.w3.org/1999/xlink" width="117pt" height="173pt" viewBox="0 0 117 173" version="1.1">
<g id="surface1">
<path style="fill-rule:nonzero;fill:rgb(0%,0%,100%);fill-opacity:1;stroke-width:0.3985;stroke-linecap:butt;stroke-linejoin:miter;stroke:rgb(0%,0%,100%);stroke-opacity:1;stroke-miterlimit:10;" d="M 0.000597752 -0.001125 L 0.000597752 170.080906 L 28.347404 170.080906 L 28.347404 -0.001125 Z M 0.000597752 -0.001125 " transform="matrix(1.00003,0,0,-1,1.99159,171.077)"/>
<path style="fill:none;stroke-width:0.79701;stroke-linecap:butt;stroke-linejoin:miter;stroke:rgb(0%,0%,0%);stroke-opacity:1;stroke-miterlimit:10;" d="M 0.000597752 -0.001125 L 113.387821 -0.001125 M 0.000597752 28.346531 L 113.387821 28.346531 M 0.000597752 56.694187 L 113.387821 56.694187 M 0.000597752 85.041844 L 113.387821 85.041844 M 0.000597752 113.385594 L 113.387821 113.385594 M 0.000597752 141.73325 L 113.387821 141.73325 M 0.000597752 170.069188 L 113.387821 170.069188 M 0.000597752 -0.001125 L 0.000597752 170.080906 M 28.347404 -0.001125 L 28.347404 170.080906 M 56.694209 -0.001125 L 56.694209 170.080906 M 85.041015 -0.001125 L 85.041015 170.080906 M 113.376103 -0.001125 L 113.376103 170.080906 " transform="matrix(1.00003,0,0,-1,1.99159,171.077)"/>
</g>
</svg>
