<?xml version="1.0" encoding="UTF-8"?>
<svg xmlns="http://www.w3.org/2000/svg" xmlns:xlink="http://www.w3.org/1999/xlink" width="95pt" height="48pt" viewBox="0 0 95 48" version="1.1">
<g id="surface1">
<path style="fill-rule:nonzero;fill:rgb(100%,75%,75%);fill-opacity:1;stroke-width:0.3985;stroke-linecap:butt;stroke-linejoin:miter;stroke:rgb(100%,75%,75%);stroke-opacity:1;stroke-miterlimit:10;" d="M 0.0011875 0.0014375 L 0.0011875 45.356906 L 68.032438 45.356906 L 68.032438 0.0014375 Z M 0.0011875 0.0014375 " transform="matrix(1,0,0,-1,1.991,46.353)"/>
<path style="fill-rule:nonzero;fill:rgb(0%,0%,100%);fill-opacity:0.4;stroke-width:0.3985;stroke-linecap:butt;stroke-linejoin:miter;stroke:rgb(0%,0%,100%);stroke-opacity:0.4;stroke-miterlimit:10;" d="M 0.0011875 22.677219 L 0.0011875 45.356906 L 90.708219 45.356906 L 90.708219 22.677219 Z M 0.0011875 22.677219 " transform="matrix(1,0,0,-1,1.991,46.353)"/>
<path style="fill:none;stroke-width:0.79701;stroke-linecap:butt;stroke-linejoin:miter;stroke:rgb(0%,0%,0%);stroke-opacity:1;stroke-miterlimit:10;" d="M 0.0011875 0.0014375 L 90.708219 0.0014375 M 0.0011875 22.677219 L 90.708219 22.677219 M 0.0011875 45.345188 L 90.708219 45.345188 M 0.0011875 0.0014375 L 0.0011875 45.356906 M 22.676969 0.0014375 L 22.676969 45.356906 M 45.356656 0.0014375 L 45.356656 45.356906 M 68.032438 0.0014375 L 68.032438 45.356906 M 90.700406 0.0014375 L 90.700406 45.356906 " transform="matrix(1,0,0,-1,1.991,46.353)"/>
</g>
</svg>
