<?xml version="1.0" encoding="UTF-8"?>
<svg xmlns="http://www.w3.org/2000/svg" xmlns:xlink="http://www.w3.org/1999/xlink" width="72pt" height="71pt" viewBox="0 0 72 71" version="1.1">
<g id="surface1">
<path style="fill-rule:nonzero;fill:rgb(100%,75%,75%);fill-opacity:1;stroke-width:0.3985;stroke-linecap:butt;stroke-linejoin:miter;stroke:rgb(100%,75%,75%);stroke-opacity:1;stroke-miterlimit:10;" d="M 0.000537923 -0.00125 L 0.000537923 68.033906 L 45.353739 68.033906 L 45.353739 -0.00125 Z M 0.000537923 -0.00125 " transform="matrix(1.00005,0,0,-1,1.99165,69.03)"/>
<path style="fill-rule:nonzero;fill:rgb(0%,0%,100%);fill-opacity:0.4;stroke-width:0.3985;stroke-linecap:butt;stroke-linejoin:miter;stroke:rgb(0%,0%,100%);stroke-opacity:0.4;stroke-miterlimit:10;" d="M 0.000537923 22.678438 L 0.000537923 68.033906 L 68.032293 68.033906 L 68.032293 22.678438 Z M 0.000537923 22.678438 " transform="matrix(1.00005,0,0,-1,1.99165,69.03)"/>
<path style="fill:none;stroke-width:0.79701;stroke-linecap:butt;stroke-linejoin:miter;stroke:rgb(0%,0%,0%);stroke-opacity:1;stroke-miterlimit:10;" d="M 0.000537923 -0.00125 L 68.032293 -0.00125 M 0.000537923 22.678438 L 68.032293 22.678438 M 0.000537923 45.354219 L 68.032293 45.354219 M 0.000537923 68.026094 L 68.032293 68.026094 M 0.000537923 -0.00125 L 0.000537923 68.033906 M 22.679091 -0.00125 L 22.679091 68.033906 M 45.353739 -0.00125 L 45.353739 68.033906 M 68.02448 -0.00125 L 68.02448 68.033906 " transform="matrix(1.00005,0,0,-1,1.99165,69.03)"/>
</g>
</svg>
