<?xml version="1.0" encoding="UTF-8"?>
<svg xmlns="http://www.w3.org/2000/svg" xmlns:xlink="http://www.w3.org/1999/xlink" width="185pt" height="31pt" viewBox="0 0 185 31" version="1.1">
<g id="surface1">
<path style="fill-rule:nonzero;fill:rgb(0%,0%,100%);fill-opacity:1;stroke-width:0.3985;stroke-linecap:butt;stroke-linejoin:miter;stroke:rgb(0%,0%,100%);stroke-opacity:1;stroke-miterlimit:10;" d="M 0.00112766 0.00153687 L 0.00112766 28.348626 L 136.064813 28.348626 L 136.064813 0.00153687 Z M 0.00112766 0.00153687 " transform="matrix(1.00002,0,0,-1.00002,1.99106,29.345287)"/>
<path style="fill:none;stroke-width:0.79701;stroke-linecap:butt;stroke-linejoin:miter;stroke:rgb(0%,0%,0%);stroke-opacity:1;stroke-miterlimit:10;" d="M 0.00112766 0.00153687 L 181.419374 0.00153687 M 0.00112766 28.336908 L 181.419374 28.336908 M 0.00112766 0.00153687 L 0.00112766 28.348626 M 22.676455 0.00153687 L 22.676455 28.348626 M 45.355689 0.00153687 L 45.355689 28.348626 M 68.031017 0.00153687 L 68.031017 28.348626 M 90.710251 0.00153687 L 90.710251 28.348626 M 113.389485 0.00153687 L 113.389485 28.348626 M 136.064813 0.00153687 L 136.064813 28.348626 M 158.744047 0.00153687 L 158.744047 28.348626 M 181.411562 0.00153687 L 181.411562 28.348626 " transform="matrix(1.00002,0,0,-1.00002,1.99106,29.345287)"/>
</g>
</svg>
