<?xml version="1.0" encoding="UTF-8"?>
<svg xmlns="http://www.w3.org/2000/svg" xmlns:xlink="http://www.w3.org/1999/xlink" width="63pt" height="21pt" viewBox="0 0 63 21" version="1.1">
<g id="surface1">
<path style="fill-rule:nonzero;fill:rgb(0%,100%,0%);fill-opacity:1;stroke-width:0.3985;stroke-linecap:butt;stroke-linejoin:miter;stroke:rgb(0%,100%,0%);stroke-opacity:1;stroke-miterlimit:10;" d="M 8.502801 -0.0010292 C 8.502801 4.697908 4.698494 8.502367 -0.000254575 8.502367 C -4.695098 8.502367 -8.503311 4.697908 -8.503311 -0.0010292 C -8.503311 -4.69606 -4.695098 -8.504425 -0.000254575 -8.504425 C 4.698494 -8.504425 8.502801 -4.69606 8.502801 -0.0010292 Z M 8.502801 -0.0010292 " transform="matrix(1.0001,0,0,-1.00006,10.29713,10.303658)"/>
<path style="fill:none;stroke-width:0.3985;stroke-linecap:butt;stroke-linejoin:miter;stroke:rgb(0%,0%,0%);stroke-opacity:1;stroke-miterlimit:10;" d="M 8.502801 -0.0010292 C 8.502801 4.697908 4.698494 8.502367 -0.000254575 8.502367 C -4.695098 8.502367 -8.503311 4.697908 -8.503311 -0.0010292 C -8.503311 -4.69606 -4.695098 -8.504425 -0.000254575 -8.504425 C 4.698494 -8.504425 8.502801 -4.69606 8.502801 -0.0010292 Z M 8.502801 -0.0010292 " transform="matrix(1.0001,0,0,-1.00006,10.29713,10.303658)"/>
<path style="fill:none;stroke-width:0.3985;stroke-linecap:butt;stroke-linejoin:miter;stroke:rgb(0%,0%,0%);stroke-opacity:1;stroke-miterlimit:10;" d="M -8.503311 -0.0010292 L 8.502801 -0.0010292 " transform="matrix(1.0001,0,0,-1.00006,10.29713,10.303658)"/>
<path style="fill:none;stroke-width:0.3985;stroke-linecap:butt;stroke-linejoin:miter;stroke:rgb(0%,0%,0%);stroke-opacity:1;stroke-miterlimit:10;" d="M -0.000254575 -8.504425 L -0.000254575 8.502367 " transform="matrix(1.0001,0,0,-1.00006,10.29713,10.303658)"/>
<path style="fill:none;stroke-width:0.3985;stroke-linecap:butt;stroke-linejoin:miter;stroke:rgb(0%,0%,0%);stroke-opacity:1;stroke-miterlimit:10;" d="M 6.014769 6.014235 L -6.011372 -6.012387 " transform="matrix(1.0001,0,0,-1.00006,10.29713,10.303658)"/>
<path style="fill:none;stroke-width:0.3985;stroke-linecap:butt;stroke-linejoin:miter;stroke:rgb(0%,0%,0%);stroke-opacity:1;stroke-miterlimit:10;" d="M -6.011372 6.014235 L 6.014769 -6.012387 " transform="matrix(1.0001,0,0,-1.00006,10.29713,10.303658)"/>
<path style="fill-rule:nonzero;fill:rgb(0%,100%,0%);fill-opacity:1;stroke-width:0.3985;stroke-linecap:butt;stroke-linejoin:miter;stroke:rgb(0%,100%,0%);stroke-opacity:1;stroke-miterlimit:10;" d="M 29.7663 -0.0010292 C 29.7663 4.697908 25.958087 8.502367 21.259338 8.502367 C 16.564495 8.502367 12.756282 4.697908 12.756282 -0.0010292 C 12.756282 -4.69606 16.564495 -8.504425 21.259338 -8.504425 C 25.958087 -8.504425 29.7663 -4.69606 29.7663 -0.0010292 Z M 29.7663 -0.0010292 " transform="matrix(1.0001,0,0,-1.00006,10.29713,10.303658)"/>
<path style="fill:none;stroke-width:0.3985;stroke-linecap:butt;stroke-linejoin:miter;stroke:rgb(0%,0%,0%);stroke-opacity:1;stroke-miterlimit:10;" d="M 29.7663 -0.0010292 C 29.7663 4.697908 25.958087 8.502367 21.259338 8.502367 C 16.564495 8.502367 12.756282 4.697908 12.756282 -0.0010292 C 12.756282 -4.69606 16.564495 -8.504425 21.259338 -8.504425 C 25.958087 -8.504425 29.7663 -4.69606 29.7663 -0.0010292 Z M 29.7663 -0.0010292 " transform="matrix(1.0001,0,0,-1.00006,10.29713,10.303658)"/>
<path style="fill:none;stroke-width:0.3985;stroke-linecap:butt;stroke-linejoin:miter;stroke:rgb(0%,0%,0%);stroke-opacity:1;stroke-miterlimit:10;" d="M 12.756282 -0.0010292 L 29.7663 -0.0010292 " transform="matrix(1.0001,0,0,-1.00006,10.29713,10.303658)"/>
<path style="fill:none;stroke-width:0.3985;stroke-linecap:butt;stroke-linejoin:miter;stroke:rgb(0%,0%,0%);stroke-opacity:1;stroke-miterlimit:10;" d="M 21.259338 -8.504425 L 21.259338 8.502367 " transform="matrix(1.0001,0,0,-1.00006,10.29713,10.303658)"/>
<path style="fill:none;stroke-width:0.3985;stroke-linecap:butt;stroke-linejoin:miter;stroke:rgb(0%,0%,0%);stroke-opacity:1;stroke-miterlimit:10;" d="M 27.274362 6.014235 L 15.248221 -6.012387 " transform="matrix(1.0001,0,0,-1.00006,10.29713,10.303658)"/>
<path style="fill:none;stroke-width:0.3985;stroke-linecap:butt;stroke-linejoin:miter;stroke:rgb(0%,0%,0%);stroke-opacity:1;stroke-miterlimit:10;" d="M 15.248221 6.014235 L 27.274362 -6.012387 " transform="matrix(1.0001,0,0,-1.00006,10.29713,10.303658)"/>
<path style="fill-rule:nonzero;fill:rgb(0%,100%,0%);fill-opacity:1;stroke-width:0.3985;stroke-linecap:butt;stroke-linejoin:miter;stroke:rgb(0%,100%,0%);stroke-opacity:1;stroke-miterlimit:10;" d="M 42.522837 -8.504425 C 47.21768 -8.504425 51.025893 -4.69606 51.025893 -0.0010292 C 51.025893 4.697908 47.21768 8.502367 42.522837 8.502367 L 42.522837 -8.504425 " transform="matrix(1.0001,0,0,-1.00006,10.29713,10.303658)"/>
<path style="fill:none;stroke-width:0.3985;stroke-linecap:butt;stroke-linejoin:miter;stroke:rgb(0%,0%,0%);stroke-opacity:1;stroke-miterlimit:10;" d="M 51.025893 -0.0010292 C 51.025893 4.697908 47.21768 8.502367 42.522837 8.502367 C 37.824088 8.502367 34.015875 4.697908 34.015875 -0.0010292 C 34.015875 -4.69606 37.824088 -8.504425 42.522837 -8.504425 C 47.21768 -8.504425 51.025893 -4.69606 51.025893 -0.0010292 Z M 51.025893 -0.0010292 " transform="matrix(1.0001,0,0,-1.00006,10.29713,10.303658)"/>
<path style="fill:none;stroke-width:0.3985;stroke-linecap:butt;stroke-linejoin:miter;stroke:rgb(0%,0%,0%);stroke-opacity:1;stroke-miterlimit:10;" d="M 34.015875 -0.0010292 L 51.025893 -0.0010292 " transform="matrix(1.0001,0,0,-1.00006,10.29713,10.303658)"/>
<path style="fill:none;stroke-width:0.3985;stroke-linecap:butt;stroke-linejoin:miter;stroke:rgb(0%,0%,0%);stroke-opacity:1;stroke-miterlimit:10;" d="M 42.522837 -8.504425 L 42.522837 8.502367 " transform="matrix(1.0001,0,0,-1.00006,10.29713,10.303658)"/>
<path style="fill:none;stroke-width:0.3985;stroke-linecap:butt;stroke-linejoin:miter;stroke:rgb(0%,0%,0%);stroke-opacity:1;stroke-miterlimit:10;" d="M 48.533955 6.014235 L 36.507813 -6.012387 " transform="matrix(1.0001,0,0,-1.00006,10.29713,10.303658)"/>
<path style="fill:none;stroke-width:0.3985;stroke-linecap:butt;stroke-linejoin:miter;stroke:rgb(0%,0%,0%);stroke-opacity:1;stroke-miterlimit:10;" d="M 36.507813 6.014235 L 48.533955 -6.012387 " transform="matrix(1.0001,0,0,-1.00006,10.29713,10.303658)"/>
</g>
</svg>
