<?xml version="1.0" encoding="UTF-8"?>
<svg xmlns="http://www.w3.org/2000/svg" xmlns:xlink="http://www.w3.org/1999/xlink" width="42pt" height="21pt" viewBox="0 0 42 21" version="1.1">
<g id="surface1">
<path style="fill-rule:nonzero;fill:rgb(0%,100%,0%);fill-opacity:1;stroke-width:0.3985;stroke-linecap:butt;stroke-linejoin:miter;stroke:rgb(0%,100%,0%);stroke-opacity:1;stroke-miterlimit:10;" d="M 8.503593 -0.0010292 C 8.503593 4.697908 4.695228 8.502367 0.000197228 8.502367 C -4.694834 8.502367 -8.503199 4.697908 -8.503199 -0.0010292 C -8.503199 -4.69606 -4.694834 -8.504425 0.000197228 -8.504425 C 4.695228 -8.504425 8.503593 -4.69606 8.503593 -0.0010292 Z M 8.503593 -0.0010292 " transform="matrix(1.00006,0,0,-1.00006,10.296678,10.303658)"/>
<path style="fill:none;stroke-width:0.3985;stroke-linecap:butt;stroke-linejoin:miter;stroke:rgb(0%,0%,0%);stroke-opacity:1;stroke-miterlimit:10;" d="M 8.503593 -0.0010292 C 8.503593 4.697908 4.695228 8.502367 0.000197228 8.502367 C -4.694834 8.502367 -8.503199 4.697908 -8.503199 -0.0010292 C -8.503199 -4.69606 -4.694834 -8.504425 0.000197228 -8.504425 C 4.695228 -8.504425 8.503593 -4.69606 8.503593 -0.0010292 Z M 8.503593 -0.0010292 " transform="matrix(1.00006,0,0,-1.00006,10.296678,10.303658)"/>
<path style="fill:none;stroke-width:0.3985;stroke-linecap:butt;stroke-linejoin:miter;stroke:rgb(0%,0%,0%);stroke-opacity:1;stroke-miterlimit:10;" d="M -8.503199 -0.0010292 L 8.503593 -0.0010292 " transform="matrix(1.00006,0,0,-1.00006,10.296678,10.303658)"/>
<path style="fill:none;stroke-width:0.3985;stroke-linecap:butt;stroke-linejoin:miter;stroke:rgb(0%,0%,0%);stroke-opacity:1;stroke-miterlimit:10;" d="M 0.000197228 -8.504425 L 0.000197228 8.502367 " transform="matrix(1.00006,0,0,-1.00006,10.296678,10.303658)"/>
<path style="fill-rule:nonzero;fill:rgb(0%,100%,0%);fill-opacity:1;stroke-width:0.3985;stroke-linecap:butt;stroke-linejoin:miter;stroke:rgb(0%,100%,0%);stroke-opacity:1;stroke-miterlimit:10;" d="M 21.26064 -8.504425 C 25.955671 -8.504425 29.764036 -4.69606 29.764036 -0.0010292 C 29.764036 4.697908 25.955671 8.502367 21.26064 8.502367 L 21.26064 -8.504425 " transform="matrix(1.00006,0,0,-1.00006,10.296678,10.303658)"/>
<path style="fill:none;stroke-width:0.3985;stroke-linecap:butt;stroke-linejoin:miter;stroke:rgb(0%,0%,0%);stroke-opacity:1;stroke-miterlimit:10;" d="M 29.764036 -0.0010292 C 29.764036 4.697908 25.955671 8.502367 21.26064 8.502367 C 16.56561 8.502367 12.757244 4.697908 12.757244 -0.0010292 C 12.757244 -4.69606 16.56561 -8.504425 21.26064 -8.504425 C 25.955671 -8.504425 29.764036 -4.69606 29.764036 -0.0010292 Z M 29.764036 -0.0010292 " transform="matrix(1.00006,0,0,-1.00006,10.296678,10.303658)"/>
<path style="fill:none;stroke-width:0.3985;stroke-linecap:butt;stroke-linejoin:miter;stroke:rgb(0%,0%,0%);stroke-opacity:1;stroke-miterlimit:10;" d="M 12.757244 -0.0010292 L 29.764036 -0.0010292 " transform="matrix(1.00006,0,0,-1.00006,10.296678,10.303658)"/>
<path style="fill:none;stroke-width:0.3985;stroke-linecap:butt;stroke-linejoin:miter;stroke:rgb(0%,0%,0%);stroke-opacity:1;stroke-miterlimit:10;" d="M 21.26064 -8.504425 L 21.26064 8.502367 " transform="matrix(1.00006,0,0,-1.00006,10.296678,10.303658)"/>
</g>
</svg>
